<mxfile host="65bd71144e">
    <diagram id="I7CtlgzaEKgKahF9HZf2" name="Main algorithm">
        <mxGraphModel grid="1" gridSize="10" guides="1" tooltips="1" connect="1" arrows="1" page="1" fold="1" pageScale="1" pageWidth="827" pageHeight="1169" math="0" shadow="0">
            <root>
                <mxCell id="0"/>
                <mxCell id="1" parent="0"/>
                <mxCell id="12" value="" style="edgeStyle=none;html=1;strokeColor=#60E696;fontColor=#095C86;" parent="1" source="2" target="4" edge="1">
                    <mxGeometry relative="1" as="geometry"/>
                </mxCell>
                <mxCell id="2" value="Start" style="ellipse;whiteSpace=wrap;html=1;fillColor=#F694C1;strokeColor=#AF45ED;fontColor=#095C86;" parent="1" vertex="1">
                    <mxGeometry x="230" y="40" width="120" height="80" as="geometry"/>
                </mxCell>
                <mxCell id="14" value="" style="edgeStyle=none;html=1;strokeColor=#60E696;fontColor=#095C86;" parent="1" source="3" target="8" edge="1">
                    <mxGeometry relative="1" as="geometry"/>
                </mxCell>
                <mxCell id="3" value="FillStringArray Method" style="shape=process;whiteSpace=wrap;html=1;backgroundOutline=1;fillColor=#F694C1;strokeColor=#AF45ED;fontColor=#095C86;" parent="1" vertex="1">
                    <mxGeometry x="230" y="240" width="120" height="60" as="geometry"/>
                </mxCell>
                <mxCell id="13" value="" style="edgeStyle=none;html=1;strokeColor=#60E696;fontColor=#095C86;" parent="1" source="4" target="3" edge="1">
                    <mxGeometry relative="1" as="geometry"/>
                </mxCell>
                <mxCell id="4" value="string array(0, 9)&amp;nbsp;" style="rounded=0;whiteSpace=wrap;html=1;fillColor=#F694C1;strokeColor=#AF45ED;fontColor=#095C86;" parent="1" vertex="1">
                    <mxGeometry x="230" y="150" width="120" height="60" as="geometry"/>
                </mxCell>
                <mxCell id="16" value="" style="edgeStyle=none;html=1;strokeColor=#60E696;fontColor=#095C86;" parent="1" source="5" target="9" edge="1">
                    <mxGeometry relative="1" as="geometry"/>
                </mxCell>
                <mxCell id="5" value="N = random[0, 3]" style="rounded=0;whiteSpace=wrap;html=1;fillColor=#F694C1;strokeColor=#AF45ED;fontColor=#095C86;" parent="1" vertex="1">
                    <mxGeometry x="230" y="450" width="120" height="60" as="geometry"/>
                </mxCell>
                <mxCell id="19" value="" style="edgeStyle=none;html=1;strokeColor=#60E696;fontColor=#095C86;" parent="1" source="7" target="10" edge="1">
                    <mxGeometry relative="1" as="geometry"/>
                </mxCell>
                <mxCell id="7" value="string newArray(0, N) = FillStringArrayAvailableValues&lt;br&gt;Method" style="shape=process;whiteSpace=wrap;html=1;backgroundOutline=1;fillColor=#F694C1;strokeColor=#AF45ED;fontColor=#095C86;" parent="1" vertex="1">
                    <mxGeometry x="185" y="680" width="210" height="60" as="geometry"/>
                </mxCell>
                <mxCell id="15" value="" style="edgeStyle=none;html=1;strokeColor=#60E696;fontColor=#095C86;" parent="1" source="8" target="5" edge="1">
                    <mxGeometry relative="1" as="geometry"/>
                </mxCell>
                <mxCell id="8" value="array" style="shape=document;whiteSpace=wrap;html=1;boundedLbl=1;fillColor=#F694C1;strokeColor=#AF45ED;fontColor=#095C86;" parent="1" vertex="1">
                    <mxGeometry x="230" y="340" width="120" height="80" as="geometry"/>
                </mxCell>
                <mxCell id="17" value="" style="edgeStyle=none;html=1;strokeColor=#60E696;fontColor=#095C86;" parent="1" source="9" edge="1">
                    <mxGeometry relative="1" as="geometry">
                        <mxPoint x="290" y="680" as="targetPoint"/>
                    </mxGeometry>
                </mxCell>
                <mxCell id="9" value="N" style="shape=document;whiteSpace=wrap;html=1;boundedLbl=1;fillColor=#F694C1;strokeColor=#AF45ED;fontColor=#095C86;" parent="1" vertex="1">
                    <mxGeometry x="230" y="560" width="120" height="80" as="geometry"/>
                </mxCell>
                <mxCell id="20" value="" style="edgeStyle=none;html=1;strokeColor=#60E696;fontColor=#095C86;" parent="1" source="10" target="11" edge="1">
                    <mxGeometry relative="1" as="geometry"/>
                </mxCell>
                <mxCell id="10" value="newArray" style="shape=document;whiteSpace=wrap;html=1;boundedLbl=1;fillColor=#F694C1;strokeColor=#AF45ED;fontColor=#095C86;" parent="1" vertex="1">
                    <mxGeometry x="230" y="780" width="120" height="80" as="geometry"/>
                </mxCell>
                <mxCell id="11" value="End" style="ellipse;whiteSpace=wrap;html=1;fillColor=#F694C1;strokeColor=#AF45ED;fontColor=#095C86;" parent="1" vertex="1">
                    <mxGeometry x="230" y="890" width="120" height="80" as="geometry"/>
                </mxCell>
            </root>
        </mxGraphModel>
    </diagram>
    <diagram id="dA9CxyaNZKsQa1Q717A0" name="FillStringArray method">
        <mxGraphModel grid="1" gridSize="10" guides="1" tooltips="1" connect="1" arrows="1" page="1" fold="1" pageScale="1" pageWidth="827" pageHeight="1169" math="0" shadow="0">
            <root>
                <mxCell id="aLZsSx9Ks_OGtDZK_Lan-0"/>
                <mxCell id="aLZsSx9Ks_OGtDZK_Lan-1" parent="aLZsSx9Ks_OGtDZK_Lan-0"/>
                <mxCell id="aLZsSx9Ks_OGtDZK_Lan-10" value="" style="edgeStyle=none;html=1;entryX=0.5;entryY=0;entryDx=0;entryDy=0;strokeColor=#60E696;fontColor=#095C86;" parent="aLZsSx9Ks_OGtDZK_Lan-1" source="aLZsSx9Ks_OGtDZK_Lan-2" target="DUCaOLQ-ZFCEJAdMbnKT-0" edge="1">
                    <mxGeometry relative="1" as="geometry"/>
                </mxCell>
                <mxCell id="aLZsSx9Ks_OGtDZK_Lan-2" value="Start" style="ellipse;whiteSpace=wrap;html=1;fillColor=#F694C1;strokeColor=#AF45ED;fontColor=#095C86;" parent="aLZsSx9Ks_OGtDZK_Lan-1" vertex="1">
                    <mxGeometry x="230" y="-100" width="120" height="80" as="geometry"/>
                </mxCell>
                <mxCell id="aLZsSx9Ks_OGtDZK_Lan-11" value="" style="edgeStyle=none;html=1;strokeColor=#60E696;fontColor=#095C86;" parent="aLZsSx9Ks_OGtDZK_Lan-1" source="aLZsSx9Ks_OGtDZK_Lan-3" target="aLZsSx9Ks_OGtDZK_Lan-4" edge="1">
                    <mxGeometry relative="1" as="geometry"/>
                </mxCell>
                <mxCell id="aLZsSx9Ks_OGtDZK_Lan-3" value="i = 0" style="rounded=0;whiteSpace=wrap;html=1;fillColor=#F694C1;strokeColor=#AF45ED;fontColor=#095C86;" parent="aLZsSx9Ks_OGtDZK_Lan-1" vertex="1">
                    <mxGeometry x="230" y="140" width="120" height="60" as="geometry"/>
                </mxCell>
                <mxCell id="aLZsSx9Ks_OGtDZK_Lan-12" value="Yes" style="edgeStyle=none;html=1;strokeColor=#60E696;fontColor=#095C86;" parent="aLZsSx9Ks_OGtDZK_Lan-1" source="aLZsSx9Ks_OGtDZK_Lan-4" target="aLZsSx9Ks_OGtDZK_Lan-5" edge="1">
                    <mxGeometry y="10" relative="1" as="geometry">
                        <mxPoint as="offset"/>
                    </mxGeometry>
                </mxCell>
                <mxCell id="aLZsSx9Ks_OGtDZK_Lan-13" style="edgeStyle=none;html=1;entryX=0;entryY=0.5;entryDx=0;entryDy=0;strokeColor=#60E696;fontColor=#095C86;" parent="aLZsSx9Ks_OGtDZK_Lan-1" source="aLZsSx9Ks_OGtDZK_Lan-4" target="aLZsSx9Ks_OGtDZK_Lan-6" edge="1">
                    <mxGeometry relative="1" as="geometry">
                        <Array as="points">
                            <mxPoint x="120" y="280"/>
                            <mxPoint x="120" y="510"/>
                        </Array>
                    </mxGeometry>
                </mxCell>
                <mxCell id="aLZsSx9Ks_OGtDZK_Lan-15" value="No" style="edgeLabel;html=1;align=center;verticalAlign=middle;resizable=0;points=[];fontColor=#095C86;" parent="aLZsSx9Ks_OGtDZK_Lan-13" vertex="1" connectable="0">
                    <mxGeometry x="-0.8607" relative="1" as="geometry">
                        <mxPoint as="offset"/>
                    </mxGeometry>
                </mxCell>
                <mxCell id="aLZsSx9Ks_OGtDZK_Lan-4" value="i &amp;lt; array.Length" style="rhombus;whiteSpace=wrap;html=1;fillColor=#F694C1;strokeColor=#AF45ED;fontColor=#095C86;" parent="aLZsSx9Ks_OGtDZK_Lan-1" vertex="1">
                    <mxGeometry x="230" y="240" width="120" height="80" as="geometry"/>
                </mxCell>
                <mxCell id="ZIG3cMrMn22bsknywzB3-0" style="edgeStyle=none;html=1;entryX=1;entryY=0.5;entryDx=0;entryDy=0;exitX=1;exitY=0.5;exitDx=0;exitDy=0;strokeColor=#60E696;fontColor=#095C86;" parent="aLZsSx9Ks_OGtDZK_Lan-1" source="aLZsSx9Ks_OGtDZK_Lan-5" target="aLZsSx9Ks_OGtDZK_Lan-4" edge="1">
                    <mxGeometry relative="1" as="geometry">
                        <mxPoint x="460" y="360" as="targetPoint"/>
                        <Array as="points">
                            <mxPoint x="430" y="390"/>
                            <mxPoint x="430" y="280"/>
                        </Array>
                    </mxGeometry>
                </mxCell>
                <mxCell id="aLZsSx9Ks_OGtDZK_Lan-5" value="arrai[i] = random(-100, 100)&lt;br&gt;i = i + 2" style="rounded=0;whiteSpace=wrap;html=1;fillColor=#F694C1;strokeColor=#AF45ED;fontColor=#095C86;" parent="aLZsSx9Ks_OGtDZK_Lan-1" vertex="1">
                    <mxGeometry x="210" y="360" width="160" height="60" as="geometry"/>
                </mxCell>
                <mxCell id="aLZsSx9Ks_OGtDZK_Lan-16" value="" style="edgeStyle=none;html=1;strokeColor=#60E696;fontColor=#095C86;" parent="aLZsSx9Ks_OGtDZK_Lan-1" source="aLZsSx9Ks_OGtDZK_Lan-6" target="aLZsSx9Ks_OGtDZK_Lan-7" edge="1">
                    <mxGeometry relative="1" as="geometry"/>
                </mxCell>
                <mxCell id="aLZsSx9Ks_OGtDZK_Lan-6" value="i = 1" style="rounded=0;whiteSpace=wrap;html=1;fillColor=#F694C1;strokeColor=#AF45ED;fontColor=#095C86;" parent="aLZsSx9Ks_OGtDZK_Lan-1" vertex="1">
                    <mxGeometry x="230" y="480" width="120" height="60" as="geometry"/>
                </mxCell>
                <mxCell id="aLZsSx9Ks_OGtDZK_Lan-17" value="Yes" style="edgeStyle=none;html=1;strokeColor=#60E696;fontColor=#095C86;" parent="aLZsSx9Ks_OGtDZK_Lan-1" source="aLZsSx9Ks_OGtDZK_Lan-7" target="aLZsSx9Ks_OGtDZK_Lan-8" edge="1">
                    <mxGeometry relative="1" as="geometry"/>
                </mxCell>
                <mxCell id="aLZsSx9Ks_OGtDZK_Lan-18" value="" style="edgeStyle=none;html=1;entryX=0.5;entryY=0;entryDx=0;entryDy=0;strokeColor=#60E696;fontColor=#095C86;" parent="aLZsSx9Ks_OGtDZK_Lan-1" edge="1">
                    <mxGeometry relative="1" as="geometry">
                        <mxPoint x="350" y="624" as="sourcePoint"/>
                        <mxPoint x="290" y="809" as="targetPoint"/>
                        <Array as="points">
                            <mxPoint x="430" y="624"/>
                            <mxPoint x="430" y="779"/>
                            <mxPoint x="360" y="779"/>
                            <mxPoint x="290" y="779"/>
                        </Array>
                    </mxGeometry>
                </mxCell>
                <mxCell id="aLZsSx9Ks_OGtDZK_Lan-19" value="No" style="edgeLabel;html=1;align=center;verticalAlign=middle;resizable=0;points=[];fontColor=#095C86;" parent="aLZsSx9Ks_OGtDZK_Lan-18" vertex="1" connectable="0">
                    <mxGeometry x="-0.9088" y="2" relative="1" as="geometry">
                        <mxPoint as="offset"/>
                    </mxGeometry>
                </mxCell>
                <mxCell id="aLZsSx9Ks_OGtDZK_Lan-7" value="i &amp;lt; array.Length" style="rhombus;whiteSpace=wrap;html=1;fillColor=#F694C1;strokeColor=#AF45ED;fontColor=#095C86;" parent="aLZsSx9Ks_OGtDZK_Lan-1" vertex="1">
                    <mxGeometry x="230" y="585" width="120" height="80" as="geometry"/>
                </mxCell>
                <mxCell id="ZIG3cMrMn22bsknywzB3-1" style="edgeStyle=none;html=1;entryX=0;entryY=0.5;entryDx=0;entryDy=0;strokeColor=#60E696;fontColor=#095C86;" parent="aLZsSx9Ks_OGtDZK_Lan-1" source="aLZsSx9Ks_OGtDZK_Lan-8" target="aLZsSx9Ks_OGtDZK_Lan-7" edge="1">
                    <mxGeometry relative="1" as="geometry">
                        <mxPoint x="80.00000000000011" y="720" as="targetPoint"/>
                        <Array as="points">
                            <mxPoint x="160" y="740"/>
                            <mxPoint x="160" y="625"/>
                        </Array>
                    </mxGeometry>
                </mxCell>
                <mxCell id="aLZsSx9Ks_OGtDZK_Lan-8" value="arrai[i] = random(A, Z)&lt;br&gt;i = i + 2" style="rounded=0;whiteSpace=wrap;html=1;fillColor=#F694C1;strokeColor=#AF45ED;fontColor=#095C86;" parent="aLZsSx9Ks_OGtDZK_Lan-1" vertex="1">
                    <mxGeometry x="210" y="710" width="160" height="60" as="geometry"/>
                </mxCell>
                <mxCell id="aLZsSx9Ks_OGtDZK_Lan-9" value="End" style="ellipse;whiteSpace=wrap;html=1;fillColor=#F694C1;strokeColor=#AF45ED;fontColor=#095C86;" parent="aLZsSx9Ks_OGtDZK_Lan-1" vertex="1">
                    <mxGeometry x="230" y="920" width="120" height="80" as="geometry"/>
                </mxCell>
                <mxCell id="DUCaOLQ-ZFCEJAdMbnKT-1" value="" style="edgeStyle=none;html=1;strokeColor=#60E696;fontColor=#095C86;" parent="aLZsSx9Ks_OGtDZK_Lan-1" source="DUCaOLQ-ZFCEJAdMbnKT-0" target="aLZsSx9Ks_OGtDZK_Lan-3" edge="1">
                    <mxGeometry relative="1" as="geometry"/>
                </mxCell>
                <mxCell id="DUCaOLQ-ZFCEJAdMbnKT-0" value="string array(0, 9)&amp;nbsp;" style="shape=parallelogram;perimeter=parallelogramPerimeter;whiteSpace=wrap;html=1;fixedSize=1;fillColor=#F694C1;strokeColor=#AF45ED;fontColor=#095C86;" parent="aLZsSx9Ks_OGtDZK_Lan-1" vertex="1">
                    <mxGeometry x="230" y="30" width="120" height="60" as="geometry"/>
                </mxCell>
                <mxCell id="80rcDEN8hSw1p8i1wz0a-1" value="" style="edgeStyle=none;html=1;strokeColor=#60E696;fontColor=#095C86;" parent="aLZsSx9Ks_OGtDZK_Lan-1" source="80rcDEN8hSw1p8i1wz0a-0" target="aLZsSx9Ks_OGtDZK_Lan-9" edge="1">
                    <mxGeometry relative="1" as="geometry"/>
                </mxCell>
                <mxCell id="80rcDEN8hSw1p8i1wz0a-0" value="array" style="shape=document;whiteSpace=wrap;html=1;boundedLbl=1;fillColor=#F694C1;strokeColor=#AF45ED;fontColor=#095C86;" parent="aLZsSx9Ks_OGtDZK_Lan-1" vertex="1">
                    <mxGeometry x="230" y="810" width="120" height="80" as="geometry"/>
                </mxCell>
            </root>
        </mxGraphModel>
    </diagram>
    <diagram id="TCYEbxDDQ7fOahpHig7J" name="PrintArray method">
        <mxGraphModel dx="564" dy="1477" grid="1" gridSize="10" guides="1" tooltips="1" connect="1" arrows="1" fold="1" page="1" pageScale="1" pageWidth="827" pageHeight="1169" math="0" shadow="0">
            <root>
                <mxCell id="7uHSRBEmYIPN1GtOrrqk-0"/>
                <mxCell id="7uHSRBEmYIPN1GtOrrqk-1" parent="7uHSRBEmYIPN1GtOrrqk-0"/>
                <mxCell id="VumZjZkbgiJNXSn832Ro-3" value="" style="edgeStyle=none;html=1;strokeColor=#60E696;fontColor=#095C86;" parent="7uHSRBEmYIPN1GtOrrqk-1" target="7uHSRBEmYIPN1GtOrrqk-3" edge="1">
                    <mxGeometry relative="1" as="geometry">
                        <mxPoint x="290" y="90" as="sourcePoint"/>
                    </mxGeometry>
                </mxCell>
                <mxCell id="1rJZTBsbm92gu7viWYLb-1" value="" style="edgeStyle=none;html=1;strokeColor=#60E696;fontColor=#095C86;" parent="7uHSRBEmYIPN1GtOrrqk-1" source="7uHSRBEmYIPN1GtOrrqk-2" target="1rJZTBsbm92gu7viWYLb-0" edge="1">
                    <mxGeometry relative="1" as="geometry"/>
                </mxCell>
                <mxCell id="7uHSRBEmYIPN1GtOrrqk-2" value="Start" style="ellipse;whiteSpace=wrap;html=1;fillColor=#F694C1;strokeColor=#AF45ED;fontColor=#095C86;" parent="7uHSRBEmYIPN1GtOrrqk-1" vertex="1">
                    <mxGeometry x="230" y="-100" width="120" height="80" as="geometry"/>
                </mxCell>
                <mxCell id="VumZjZkbgiJNXSn832Ro-4" value="" style="edgeStyle=none;html=1;strokeColor=#60E696;fontColor=#095C86;" parent="7uHSRBEmYIPN1GtOrrqk-1" source="7uHSRBEmYIPN1GtOrrqk-3" target="7uHSRBEmYIPN1GtOrrqk-4" edge="1">
                    <mxGeometry relative="1" as="geometry"/>
                </mxCell>
                <mxCell id="7uHSRBEmYIPN1GtOrrqk-3" value="i = 0" style="rounded=0;whiteSpace=wrap;html=1;fillColor=#F694C1;strokeColor=#AF45ED;fontColor=#095C86;" parent="7uHSRBEmYIPN1GtOrrqk-1" vertex="1">
                    <mxGeometry x="230" y="160" width="120" height="60" as="geometry"/>
                </mxCell>
                <mxCell id="VumZjZkbgiJNXSn832Ro-5" value="Yes" style="edgeStyle=none;html=1;strokeColor=#60E696;fontColor=#095C86;" parent="7uHSRBEmYIPN1GtOrrqk-1" source="7uHSRBEmYIPN1GtOrrqk-4" target="VumZjZkbgiJNXSn832Ro-1" edge="1">
                    <mxGeometry relative="1" as="geometry"/>
                </mxCell>
                <mxCell id="VumZjZkbgiJNXSn832Ro-6" style="edgeStyle=none;html=1;entryX=0.5;entryY=0;entryDx=0;entryDy=0;exitX=1;exitY=0.5;exitDx=0;exitDy=0;strokeColor=#60E696;fontColor=#095C86;" parent="7uHSRBEmYIPN1GtOrrqk-1" source="7uHSRBEmYIPN1GtOrrqk-4" target="VumZjZkbgiJNXSn832Ro-2" edge="1">
                    <mxGeometry relative="1" as="geometry">
                        <Array as="points">
                            <mxPoint x="430" y="300"/>
                            <mxPoint x="430" y="470"/>
                            <mxPoint x="290" y="470"/>
                        </Array>
                    </mxGeometry>
                </mxCell>
                <mxCell id="VumZjZkbgiJNXSn832Ro-7" value="No" style="edgeLabel;html=1;align=center;verticalAlign=middle;resizable=0;points=[];fontColor=#095C86;" parent="VumZjZkbgiJNXSn832Ro-6" vertex="1" connectable="0">
                    <mxGeometry x="-0.9132" y="-2" relative="1" as="geometry">
                        <mxPoint as="offset"/>
                    </mxGeometry>
                </mxCell>
                <mxCell id="7uHSRBEmYIPN1GtOrrqk-4" value="i &amp;lt; array.Length" style="rhombus;whiteSpace=wrap;html=1;fillColor=#F694C1;strokeColor=#AF45ED;fontColor=#095C86;" parent="7uHSRBEmYIPN1GtOrrqk-1" vertex="1">
                    <mxGeometry x="220" y="260" width="140" height="80" as="geometry"/>
                </mxCell>
                <mxCell id="U_u-Us_2Q9ZkqIZfDcFR-0" style="edgeStyle=none;html=1;entryX=0;entryY=0.5;entryDx=0;entryDy=0;strokeColor=#60E696;fontColor=#095C86;" parent="7uHSRBEmYIPN1GtOrrqk-1" source="VumZjZkbgiJNXSn832Ro-1" target="7uHSRBEmYIPN1GtOrrqk-4" edge="1">
                    <mxGeometry relative="1" as="geometry">
                        <mxPoint x="100" y="350" as="targetPoint"/>
                        <Array as="points">
                            <mxPoint x="150" y="420"/>
                            <mxPoint x="150" y="300"/>
                        </Array>
                    </mxGeometry>
                </mxCell>
                <mxCell id="VumZjZkbgiJNXSn832Ro-1" value="array[i]" style="shape=document;whiteSpace=wrap;html=1;boundedLbl=1;fillColor=#F694C1;strokeColor=#AF45ED;fontColor=#095C86;" parent="7uHSRBEmYIPN1GtOrrqk-1" vertex="1">
                    <mxGeometry x="230" y="380" width="120" height="80" as="geometry"/>
                </mxCell>
                <mxCell id="VumZjZkbgiJNXSn832Ro-2" value="End" style="ellipse;whiteSpace=wrap;html=1;fillColor=#F694C1;strokeColor=#AF45ED;fontColor=#095C86;" parent="7uHSRBEmYIPN1GtOrrqk-1" vertex="1">
                    <mxGeometry x="230" y="520" width="120" height="80" as="geometry"/>
                </mxCell>
                <mxCell id="1rJZTBsbm92gu7viWYLb-0" value="string array(0,N)&amp;nbsp;" style="shape=parallelogram;perimeter=parallelogramPerimeter;whiteSpace=wrap;html=1;fixedSize=1;fillColor=#F694C1;strokeColor=#AF45ED;fontColor=#095C86;" parent="7uHSRBEmYIPN1GtOrrqk-1" vertex="1">
                    <mxGeometry x="230" y="30" width="120" height="60" as="geometry"/>
                </mxCell>
            </root>
        </mxGraphModel>
    </diagram>
    <diagram id="m8-hqCKfDY5baBkR9-Hb" name="FillStringArrayAvailableValue methods">
        <mxGraphModel dx="564" dy="308" grid="1" gridSize="10" guides="1" tooltips="1" connect="1" arrows="1" fold="1" page="1" pageScale="1" pageWidth="827" pageHeight="1169" math="0" shadow="0">
            <root>
                <mxCell id="Pvhg7NbBKlvlE_d_eWya-0"/>
                <mxCell id="Pvhg7NbBKlvlE_d_eWya-1" parent="Pvhg7NbBKlvlE_d_eWya-0"/>
                <mxCell id="m_tN34ng_55rht6U_o6M-0" value="" style="edgeStyle=none;html=1;strokeColor=#60E696;fontColor=#095C86;" parent="Pvhg7NbBKlvlE_d_eWya-1" source="Pvhg7NbBKlvlE_d_eWya-2" target="nDfR1bIp0QEGBOECBmy5-0" edge="1">
                    <mxGeometry relative="1" as="geometry"/>
                </mxCell>
                <mxCell id="Pvhg7NbBKlvlE_d_eWya-2" value="Start" style="ellipse;whiteSpace=wrap;html=1;fillColor=#F694C1;strokeColor=#AF45ED;fontColor=#095C86;" parent="Pvhg7NbBKlvlE_d_eWya-1" vertex="1">
                    <mxGeometry x="220" y="10" width="120" height="80" as="geometry"/>
                </mxCell>
                <mxCell id="m_tN34ng_55rht6U_o6M-2" value="" style="edgeStyle=none;html=1;strokeColor=#60E696;fontColor=#095C86;" parent="Pvhg7NbBKlvlE_d_eWya-1" source="nDfR1bIp0QEGBOECBmy5-0" target="m_tN34ng_55rht6U_o6M-1" edge="1">
                    <mxGeometry relative="1" as="geometry"/>
                </mxCell>
                <mxCell id="nDfR1bIp0QEGBOECBmy5-0" value="N&lt;br&gt;string array(0, 9)&amp;nbsp;" style="shape=parallelogram;perimeter=parallelogramPerimeter;whiteSpace=wrap;html=1;fixedSize=1;fillColor=#F694C1;strokeColor=#AF45ED;fontColor=#095C86;" parent="Pvhg7NbBKlvlE_d_eWya-1" vertex="1">
                    <mxGeometry x="200" y="140" width="160" height="60" as="geometry"/>
                </mxCell>
                <mxCell id="m_tN34ng_55rht6U_o6M-4" value="" style="edgeStyle=none;html=1;strokeColor=#60E696;fontColor=#095C86;" parent="Pvhg7NbBKlvlE_d_eWya-1" source="m_tN34ng_55rht6U_o6M-1" target="m_tN34ng_55rht6U_o6M-3" edge="1">
                    <mxGeometry relative="1" as="geometry"/>
                </mxCell>
                <mxCell id="m_tN34ng_55rht6U_o6M-1" value="string result(0,N)&lt;br&gt;i = 0" style="rounded=0;whiteSpace=wrap;html=1;fillColor=#F694C1;strokeColor=#AF45ED;fontColor=#095C86;" parent="Pvhg7NbBKlvlE_d_eWya-1" vertex="1">
                    <mxGeometry x="220" y="240" width="120" height="60" as="geometry"/>
                </mxCell>
                <mxCell id="m_tN34ng_55rht6U_o6M-7" value="Yes" style="edgeStyle=none;html=1;strokeColor=#60E696;fontColor=#095C86;" parent="Pvhg7NbBKlvlE_d_eWya-1" source="m_tN34ng_55rht6U_o6M-3" target="m_tN34ng_55rht6U_o6M-5" edge="1">
                    <mxGeometry relative="1" as="geometry"/>
                </mxCell>
                <mxCell id="m_tN34ng_55rht6U_o6M-8" style="edgeStyle=none;html=1;exitX=1;exitY=0.5;exitDx=0;exitDy=0;strokeColor=#60E696;fontColor=#095C86;" parent="Pvhg7NbBKlvlE_d_eWya-1" source="m_tN34ng_55rht6U_o6M-3" edge="1">
                    <mxGeometry relative="1" as="geometry">
                        <mxPoint x="350" y="390" as="sourcePoint"/>
                        <mxPoint x="280" y="610" as="targetPoint"/>
                        <Array as="points">
                            <mxPoint x="440" y="370"/>
                            <mxPoint x="440" y="550"/>
                            <mxPoint x="280" y="550"/>
                        </Array>
                    </mxGeometry>
                </mxCell>
                <mxCell id="m_tN34ng_55rht6U_o6M-9" value="No" style="edgeLabel;html=1;align=center;verticalAlign=middle;resizable=0;points=[];fontColor=#095C86;" parent="m_tN34ng_55rht6U_o6M-8" vertex="1" connectable="0">
                    <mxGeometry x="-0.9406" y="3" relative="1" as="geometry">
                        <mxPoint as="offset"/>
                    </mxGeometry>
                </mxCell>
                <mxCell id="m_tN34ng_55rht6U_o6M-3" value="i &amp;lt; result.Lenth" style="rhombus;whiteSpace=wrap;html=1;fillColor=#F694C1;strokeColor=#AF45ED;fontColor=#095C86;" parent="Pvhg7NbBKlvlE_d_eWya-1" vertex="1">
                    <mxGeometry x="220" y="330" width="120" height="80" as="geometry"/>
                </mxCell>
                <mxCell id="m_tN34ng_55rht6U_o6M-10" style="edgeStyle=none;html=1;exitX=0;exitY=0.5;exitDx=0;exitDy=0;entryX=0;entryY=0.5;entryDx=0;entryDy=0;strokeColor=#60E696;fontColor=#095C86;" parent="Pvhg7NbBKlvlE_d_eWya-1" source="m_tN34ng_55rht6U_o6M-5" target="m_tN34ng_55rht6U_o6M-3" edge="1">
                    <mxGeometry relative="1" as="geometry">
                        <mxPoint x="80" y="480" as="targetPoint"/>
                        <Array as="points">
                            <mxPoint x="130" y="480"/>
                            <mxPoint x="130" y="370"/>
                        </Array>
                    </mxGeometry>
                </mxCell>
                <mxCell id="m_tN34ng_55rht6U_o6M-5" value="j = random(0,array.Length)&lt;br&gt;result[i] = array[j]" style="rounded=0;whiteSpace=wrap;html=1;fillColor=#F694C1;strokeColor=#AF45ED;fontColor=#095C86;" parent="Pvhg7NbBKlvlE_d_eWya-1" vertex="1">
                    <mxGeometry x="195" y="450" width="170" height="60" as="geometry"/>
                </mxCell>
                <mxCell id="m_tN34ng_55rht6U_o6M-6" value="End" style="ellipse;whiteSpace=wrap;html=1;fillColor=#F694C1;strokeColor=#AF45ED;fontColor=#095C86;" parent="Pvhg7NbBKlvlE_d_eWya-1" vertex="1">
                    <mxGeometry x="220" y="710" width="120" height="80" as="geometry"/>
                </mxCell>
                <mxCell id="hG9W0sp7e7sfNW7k4vEG-1" value="" style="edgeStyle=none;html=1;strokeColor=#60E696;fontColor=#095C86;" parent="Pvhg7NbBKlvlE_d_eWya-1" source="hG9W0sp7e7sfNW7k4vEG-0" target="m_tN34ng_55rht6U_o6M-6" edge="1">
                    <mxGeometry relative="1" as="geometry"/>
                </mxCell>
                <mxCell id="hG9W0sp7e7sfNW7k4vEG-0" value="result" style="shape=document;whiteSpace=wrap;html=1;boundedLbl=1;fillColor=#F694C1;strokeColor=#AF45ED;fontColor=#095C86;" parent="Pvhg7NbBKlvlE_d_eWya-1" vertex="1">
                    <mxGeometry x="220" y="610" width="120" height="80" as="geometry"/>
                </mxCell>
            </root>
        </mxGraphModel>
    </diagram>
</mxfile>